<svg xmlns="http://www.w3.org/2000/svg" viewBox="0 0 238 181">
<path d="M 101 110 L 100 111 L 99 111 L 98 111 L 97 112 L 96 112 L 95 112 L 94 112 L 93 113 L 92 113 L 91 114 L 90 114 L 89 115 L 88 115 L 87 116 L 86 116 L 85 117 L 84 117 L 84 118 L 84 119 L 85 120 L 85 121 L 85 122 L 86 123 L 86 124 L 86 125 L 87 126 L 87 127 L 87 128 L 87 129 L 88 129 L 89 128 L 90 128 L 91 127 L 92 127 L 93 126 L 94 126 L 95 125 L 96 125 L 97 124 L 98 124 L 99 124 L 100 123 L 101 123 L 102 123 L 103 122 L 104 122 L 105 122 L 106 121 L 106 120 L 106 119 L 105 118 L 105 117 L 105 116 L 105 115 L 104 114 L 104 113 L 104 112 L 104 111 L 103 110 L 102 110 Z" fill="black"/><path d="M 124 109 L 124 110 L 125 111 L 125 112 L 125 113 L 126 114 L 126 115 L 126 116 L 127 117 L 127 118 L 128 119 L 128 120 L 128 121 L 129 121 L 130 121 L 131 122 L 132 122 L 133 122 L 134 123 L 135 123 L 136 123 L 137 124 L 138 124 L 139 124 L 140 125 L 141 125 L 142 126 L 143 126 L 144 127 L 145 127 L 146 128 L 147 129 L 148 129 L 149 130 L 150 131 L 151 131 L 152 132 L 153 133 L 154 133 L 154 132 L 153 131 L 153 130 L 153 129 L 152 128 L 152 127 L 152 126 L 151 125 L 151 124 L 151 123 L 150 122 L 150 121 L 149 120 L 149 119 L 149 118 L 148 117 L 148 116 L 148 115 L 147 115 L 146 114 L 145 114 L 144 113 L 143 113 L 142 113 L 141 112 L 140 112 L 139 112 L 138 111 L 137 111 L 136 111 L 135 111 L 134 110 L 133 110 L 132 110 L 131 110 L 130 109 L 129 109 L 128 109 L 127 109 L 126 109 L 125 109 Z" fill="black"/><path d="M 117 49 L 117 50 L 117 51 L 116 52 L 116 53 L 116 54 L 115 55 L 115 56 L 114 57 L 114 58 L 113 59 L 113 60 L 113 61 L 112 62 L 112 63 L 111 64 L 111 65 L 111 66 L 110 67 L 110 68 L 109 69 L 109 70 L 109 71 L 108 72 L 108 73 L 107 74 L 107 75 L 106 76 L 106 77 L 106 78 L 105 79 L 105 80 L 106 80 L 107 80 L 108 80 L 109 80 L 110 80 L 111 81 L 111 82 L 111 83 L 110 84 L 110 85 L 110 86 L 110 87 L 109 88 L 109 89 L 109 90 L 109 91 L 109 92 L 108 93 L 108 94 L 108 95 L 108 96 L 108 97 L 108 98 L 108 99 L 108 100 L 108 101 L 108 102 L 108 103 L 108 104 L 108 105 L 108 106 L 108 107 L 108 108 L 109 109 L 109 110 L 109 111 L 109 112 L 109 113 L 110 114 L 110 115 L 110 116 L 110 117 L 111 118 L 111 119 L 112 120 L 112 121 L 112 122 L 113 123 L 113 124 L 113 125 L 114 126 L 114 127 L 114 128 L 115 129 L 115 130 L 115 131 L 116 132 L 116 133 L 116 134 L 116 135 L 116 136 L 117 137 L 117 138 L 117 139 L 117 140 L 117 141 L 117 142 L 117 143 L 117 144 L 117 145 L 118 146 L 118 147 L 118 148 L 118 149 L 118 150 L 118 151 L 117 152 L 117 153 L 117 154 L 117 155 L 117 156 L 117 157 L 117 158 L 118 158 L 119 158 L 120 158 L 121 158 L 122 158 L 123 158 L 124 158 L 125 158 L 126 158 L 127 158 L 127 157 L 127 156 L 127 155 L 128 154 L 128 153 L 128 152 L 128 151 L 128 150 L 128 149 L 128 148 L 128 147 L 128 146 L 128 145 L 128 144 L 128 143 L 127 142 L 127 141 L 127 140 L 127 139 L 127 138 L 127 137 L 127 136 L 126 135 L 126 134 L 126 133 L 126 132 L 126 131 L 126 130 L 125 129 L 125 128 L 125 127 L 125 126 L 124 125 L 124 124 L 124 123 L 123 122 L 123 121 L 123 120 L 122 119 L 122 118 L 121 117 L 121 116 L 121 115 L 120 114 L 120 113 L 120 112 L 119 111 L 119 110 L 119 109 L 119 108 L 119 107 L 118 106 L 118 105 L 118 104 L 118 103 L 118 102 L 118 101 L 118 100 L 118 99 L 118 98 L 118 97 L 118 96 L 119 95 L 119 94 L 119 93 L 119 92 L 119 91 L 119 90 L 120 89 L 120 88 L 120 87 L 120 86 L 121 85 L 121 84 L 121 83 L 122 82 L 122 81 L 123 80 L 124 80 L 125 80 L 126 80 L 127 80 L 128 80 L 129 80 L 130 80 L 130 79 L 130 78 L 130 77 L 129 76 L 129 75 L 128 74 L 128 73 L 128 72 L 127 71 L 127 70 L 126 69 L 126 68 L 125 67 L 125 66 L 125 65 L 124 64 L 124 63 L 124 62 L 123 61 L 123 60 L 122 59 L 122 58 L 121 57 L 121 56 L 121 55 L 120 54 L 120 53 L 119 52 L 119 51 L 119 50 L 118 49 Z" fill="black"/><path d="M 74 49 L 74 50 L 73 51 L 73 52 L 72 53 L 72 54 L 72 55 L 71 56 L 71 57 L 70 58 L 70 59 L 70 60 L 69 61 L 69 62 L 68 63 L 68 64 L 68 65 L 67 66 L 67 67 L 66 68 L 66 69 L 66 70 L 65 71 L 65 72 L 64 73 L 64 74 L 64 75 L 63 76 L 63 77 L 62 78 L 62 79 L 62 80 L 63 80 L 64 80 L 65 80 L 66 80 L 67 80 L 68 81 L 68 82 L 67 83 L 67 84 L 67 85 L 66 86 L 66 87 L 66 88 L 66 89 L 65 90 L 65 91 L 65 92 L 65 93 L 65 94 L 65 95 L 65 96 L 65 97 L 65 98 L 64 99 L 64 100 L 64 101 L 64 102 L 65 103 L 65 104 L 65 105 L 65 106 L 65 107 L 65 108 L 65 109 L 65 110 L 65 111 L 66 112 L 66 113 L 66 114 L 67 115 L 67 116 L 67 117 L 68 118 L 68 119 L 68 120 L 69 121 L 69 122 L 69 123 L 70 124 L 70 125 L 70 126 L 71 127 L 71 128 L 71 129 L 72 130 L 72 131 L 72 132 L 72 133 L 73 134 L 73 135 L 73 136 L 73 137 L 73 138 L 74 139 L 74 140 L 74 141 L 74 142 L 74 143 L 74 144 L 74 145 L 74 146 L 74 147 L 74 148 L 74 149 L 74 150 L 74 151 L 74 152 L 74 153 L 74 154 L 74 155 L 74 156 L 74 157 L 74 158 L 75 158 L 76 158 L 77 158 L 78 158 L 79 158 L 80 158 L 81 158 L 82 158 L 83 158 L 84 158 L 84 157 L 84 156 L 84 155 L 84 154 L 84 153 L 84 152 L 84 151 L 84 150 L 84 149 L 84 148 L 84 147 L 84 146 L 84 145 L 84 144 L 84 143 L 84 142 L 84 141 L 84 140 L 84 139 L 84 138 L 83 137 L 83 136 L 83 135 L 83 134 L 83 133 L 83 132 L 82 131 L 82 130 L 82 129 L 82 128 L 82 127 L 81 126 L 81 125 L 81 124 L 80 123 L 80 122 L 80 121 L 79 120 L 79 119 L 78 118 L 78 117 L 78 116 L 77 115 L 77 114 L 77 113 L 76 112 L 76 111 L 76 110 L 76 109 L 75 108 L 75 107 L 75 106 L 75 105 L 75 104 L 75 103 L 75 102 L 75 101 L 75 100 L 75 99 L 75 98 L 75 97 L 75 96 L 75 95 L 75 94 L 76 93 L 76 92 L 76 91 L 76 90 L 76 89 L 77 88 L 77 87 L 77 86 L 77 85 L 78 84 L 78 83 L 78 82 L 79 81 L 80 80 L 81 80 L 82 80 L 83 80 L 84 80 L 85 80 L 86 80 L 87 80 L 87 79 L 87 78 L 86 77 L 86 76 L 85 75 L 85 74 L 84 73 L 84 72 L 84 71 L 83 70 L 83 69 L 83 68 L 82 67 L 82 66 L 81 65 L 81 64 L 81 63 L 80 62 L 80 61 L 79 60 L 79 59 L 78 58 L 78 57 L 78 56 L 77 55 L 77 54 L 77 53 L 76 52 L 76 51 L 75 50 L 75 49 Z" fill="black"/><path d="M 161 48 L 161 49 L 160 50 L 160 51 L 159 52 L 159 53 L 159 54 L 158 55 L 158 56 L 158 57 L 157 58 L 157 59 L 156 60 L 156 61 L 155 62 L 155 63 L 155 64 L 154 65 L 154 66 L 153 67 L 153 68 L 153 69 L 152 70 L 152 71 L 152 72 L 151 73 L 151 74 L 150 75 L 150 76 L 149 77 L 149 78 L 149 79 L 148 80 L 149 80 L 150 80 L 151 80 L 152 80 L 153 80 L 154 81 L 154 82 L 154 83 L 154 84 L 153 85 L 153 86 L 153 87 L 153 88 L 152 89 L 152 90 L 152 91 L 152 92 L 152 93 L 152 94 L 152 95 L 152 96 L 151 97 L 151 98 L 151 99 L 151 100 L 151 101 L 151 102 L 151 103 L 151 104 L 151 105 L 152 106 L 152 107 L 152 108 L 152 109 L 152 110 L 152 111 L 152 112 L 153 113 L 153 114 L 153 115 L 153 116 L 154 117 L 154 118 L 154 119 L 155 120 L 155 121 L 156 122 L 156 123 L 156 124 L 157 125 L 157 126 L 158 127 L 158 128 L 158 129 L 158 130 L 159 131 L 159 132 L 159 133 L 159 134 L 160 135 L 160 136 L 160 137 L 160 138 L 160 139 L 160 140 L 160 141 L 160 142 L 161 143 L 161 144 L 161 145 L 161 146 L 161 147 L 161 148 L 161 149 L 161 150 L 161 151 L 161 152 L 161 153 L 161 154 L 161 155 L 160 156 L 160 157 L 160 158 L 161 158 L 162 158 L 163 158 L 164 158 L 165 158 L 166 158 L 167 158 L 168 158 L 169 158 L 170 158 L 171 158 L 171 157 L 171 156 L 171 155 L 171 154 L 171 153 L 171 152 L 171 151 L 171 150 L 171 149 L 171 148 L 171 147 L 171 146 L 171 145 L 171 144 L 171 143 L 171 142 L 171 141 L 171 140 L 171 139 L 170 138 L 170 137 L 170 136 L 170 135 L 170 134 L 170 133 L 169 132 L 169 131 L 169 130 L 169 129 L 168 128 L 168 127 L 168 126 L 167 125 L 167 124 L 167 123 L 167 122 L 166 121 L 166 120 L 166 119 L 165 118 L 165 117 L 164 116 L 164 115 L 164 114 L 163 113 L 163 112 L 163 111 L 162 110 L 162 109 L 162 108 L 162 107 L 162 106 L 162 105 L 161 104 L 161 103 L 161 102 L 161 101 L 161 100 L 161 99 L 161 98 L 162 97 L 162 96 L 162 95 L 162 94 L 162 93 L 162 92 L 162 91 L 163 90 L 163 89 L 163 88 L 163 87 L 164 86 L 164 85 L 164 84 L 165 83 L 165 82 L 166 81 L 167 80 L 168 80 L 169 80 L 170 80 L 171 80 L 172 80 L 173 80 L 174 80 L 174 79 L 173 78 L 173 77 L 173 76 L 172 75 L 172 74 L 171 73 L 171 72 L 171 71 L 170 70 L 170 69 L 169 68 L 169 67 L 168 66 L 168 65 L 168 64 L 167 63 L 167 62 L 166 61 L 166 60 L 166 59 L 165 58 L 165 57 L 164 56 L 164 55 L 164 54 L 163 53 L 163 52 L 162 51 L 162 50 L 162 49 Z" fill="black"/><path d="M 105 16 L 104 17 L 103 17 L 102 17 L 101 17 L 100 17 L 99 17 L 98 17 L 97 17 L 96 17 L 95 18 L 94 18 L 93 18 L 92 18 L 91 18 L 90 18 L 89 19 L 88 19 L 87 19 L 86 19 L 85 19 L 84 20 L 83 20 L 82 20 L 81 20 L 80 21 L 79 21 L 78 21 L 77 21 L 76 21 L 75 22 L 74 22 L 73 22 L 72 23 L 71 23 L 70 23 L 69 24 L 68 24 L 67 24 L 66 25 L 65 25 L 64 25 L 63 26 L 62 26 L 61 26 L 60 27 L 59 27 L 58 28 L 57 28 L 56 28 L 55 29 L 54 29 L 53 30 L 52 30 L 51 31 L 50 31 L 49 32 L 48 32 L 47 33 L 46 33 L 45 33 L 44 34 L 43 35 L 42 35 L 41 36 L 40 36 L 39 37 L 38 37 L 37 38 L 36 39 L 35 39 L 34 40 L 33 40 L 32 41 L 31 42 L 30 42 L 29 43 L 28 44 L 27 44 L 26 45 L 25 46 L 24 46 L 23 47 L 22 48 L 21 49 L 20 49 L 19 50 L 18 51 L 17 52 L 16 53 L 15 53 L 14 54 L 13 55 L 12 56 L 11 57 L 10 58 L 9 59 L 8 60 L 7 61 L 6 62 L 5 63 L 4 64 L 3 65 L 2 66 L 2 67 L 2 68 L 3 69 L 4 70 L 5 71 L 6 72 L 7 73 L 8 74 L 9 75 L 10 76 L 11 77 L 12 78 L 13 79 L 14 80 L 15 81 L 16 82 L 17 83 L 18 84 L 19 85 L 20 86 L 21 87 L 22 88 L 23 89 L 24 90 L 25 91 L 26 92 L 27 93 L 28 94 L 29 95 L 30 96 L 31 97 L 32 98 L 33 99 L 34 100 L 35 101 L 36 102 L 37 103 L 38 104 L 39 105 L 40 106 L 41 107 L 42 108 L 43 109 L 44 110 L 45 111 L 46 112 L 47 113 L 48 114 L 49 115 L 50 116 L 51 117 L 52 118 L 53 119 L 54 120 L 55 121 L 56 122 L 57 123 L 58 124 L 59 125 L 60 126 L 61 127 L 62 128 L 63 129 L 64 130 L 65 131 L 66 132 L 67 132 L 67 131 L 66 130 L 66 129 L 66 128 L 65 127 L 65 126 L 65 125 L 64 124 L 64 123 L 64 122 L 63 121 L 63 120 L 62 119 L 62 118 L 62 117 L 61 116 L 61 115 L 61 114 L 61 113 L 60 112 L 60 111 L 60 110 L 60 109 L 59 108 L 58 107 L 57 106 L 56 105 L 55 104 L 54 103 L 53 102 L 52 101 L 51 100 L 50 99 L 49 98 L 48 97 L 47 96 L 46 95 L 45 94 L 44 93 L 43 92 L 42 91 L 41 90 L 40 89 L 39 88 L 38 87 L 37 86 L 36 85 L 35 84 L 34 83 L 33 82 L 32 81 L 31 80 L 30 79 L 29 78 L 28 77 L 27 76 L 26 75 L 25 74 L 24 73 L 23 72 L 22 71 L 21 70 L 20 69 L 19 68 L 18 67 L 19 66 L 20 65 L 21 64 L 22 64 L 23 63 L 24 62 L 25 61 L 26 60 L 27 59 L 28 59 L 29 58 L 30 57 L 31 56 L 32 56 L 33 55 L 34 54 L 35 54 L 36 53 L 37 52 L 38 52 L 39 51 L 40 50 L 41 49 L 42 49 L 43 48 L 44 48 L 45 47 L 46 47 L 47 46 L 48 46 L 49 45 L 50 44 L 51 44 L 52 43 L 53 43 L 54 42 L 55 42 L 56 41 L 57 41 L 58 41 L 59 40 L 60 40 L 61 39 L 62 39 L 63 38 L 64 38 L 65 38 L 66 37 L 67 37 L 68 36 L 69 36 L 70 36 L 71 35 L 72 35 L 73 35 L 74 35 L 75 34 L 76 34 L 77 34 L 78 33 L 79 33 L 80 33 L 81 33 L 82 32 L 83 32 L 84 32 L 85 31 L 86 31 L 87 31 L 88 31 L 89 31 L 90 30 L 91 30 L 92 30 L 93 30 L 94 30 L 95 30 L 96 29 L 97 29 L 98 29 L 99 29 L 100 29 L 101 29 L 102 29 L 103 29 L 104 29 L 105 28 L 106 28 L 107 28 L 108 28 L 109 28 L 110 28 L 111 28 L 112 28 L 113 28 L 114 28 L 115 28 L 116 28 L 117 28 L 118 28 L 119 28 L 120 28 L 121 28 L 122 28 L 123 28 L 124 28 L 125 28 L 126 28 L 127 28 L 128 28 L 129 28 L 130 28 L 131 29 L 132 29 L 133 29 L 134 29 L 135 29 L 136 29 L 137 29 L 138 29 L 139 29 L 140 30 L 141 30 L 142 30 L 143 30 L 144 30 L 145 30 L 146 30 L 147 31 L 148 31 L 149 31 L 150 31 L 151 32 L 152 32 L 153 32 L 154 32 L 155 33 L 156 33 L 157 33 L 158 34 L 159 34 L 160 34 L 161 34 L 162 35 L 163 35 L 164 35 L 165 36 L 166 36 L 167 36 L 168 37 L 169 37 L 170 37 L 171 38 L 172 38 L 173 39 L 174 39 L 175 39 L 176 40 L 177 40 L 178 41 L 179 41 L 180 42 L 181 42 L 182 43 L 183 43 L 184 44 L 185 44 L 186 45 L 187 45 L 188 46 L 189 46 L 190 47 L 191 47 L 192 48 L 193 48 L 194 49 L 195 50 L 196 50 L 197 51 L 198 52 L 199 52 L 200 53 L 201 54 L 202 54 L 203 55 L 204 56 L 205 57 L 206 57 L 207 58 L 208 59 L 209 60 L 210 60 L 211 61 L 212 62 L 213 63 L 214 64 L 215 65 L 216 66 L 217 67 L 216 68 L 215 69 L 214 70 L 213 71 L 212 72 L 212 73 L 211 74 L 210 74 L 209 75 L 208 76 L 207 77 L 206 78 L 205 79 L 204 80 L 203 81 L 202 82 L 201 83 L 200 84 L 199 85 L 198 86 L 197 87 L 196 88 L 195 89 L 194 90 L 193 91 L 192 92 L 191 93 L 190 94 L 189 95 L 188 96 L 187 97 L 186 98 L 185 99 L 184 100 L 183 101 L 182 102 L 181 103 L 180 104 L 179 105 L 178 106 L 177 107 L 176 108 L 175 109 L 174 110 L 173 111 L 172 112 L 171 113 L 170 114 L 170 115 L 170 116 L 170 117 L 171 118 L 171 119 L 171 120 L 172 121 L 172 122 L 172 123 L 172 124 L 173 125 L 173 126 L 173 127 L 174 127 L 175 127 L 176 126 L 177 125 L 178 124 L 179 123 L 179 122 L 180 121 L 181 120 L 182 120 L 183 119 L 184 118 L 185 117 L 185 116 L 186 115 L 187 114 L 188 114 L 189 113 L 190 112 L 191 111 L 192 110 L 192 109 L 193 108 L 194 108 L 195 107 L 196 106 L 197 105 L 197 104 L 198 103 L 199 102 L 200 102 L 201 101 L 202 100 L 203 99 L 203 98 L 204 97 L 205 96 L 206 96 L 207 95 L 208 94 L 209 93 L 210 92 L 210 91 L 211 90 L 212 90 L 213 89 L 214 88 L 215 87 L 216 86 L 216 85 L 217 84 L 218 84 L 219 83 L 220 82 L 221 81 L 222 80 L 223 79 L 224 78 L 225 77 L 226 76 L 227 75 L 227 74 L 228 73 L 229 72 L 230 72 L 231 71 L 232 70 L 233 69 L 233 68 L 234 67 L 234 66 L 233 65 L 232 64 L 231 63 L 230 62 L 229 61 L 228 60 L 227 59 L 226 58 L 225 57 L 224 56 L 223 56 L 222 55 L 221 54 L 220 53 L 219 52 L 218 51 L 217 51 L 216 50 L 215 49 L 214 48 L 213 47 L 212 47 L 211 46 L 210 45 L 209 45 L 208 44 L 207 43 L 206 42 L 205 42 L 204 41 L 203 40 L 202 40 L 201 39 L 200 39 L 199 38 L 198 38 L 197 37 L 196 36 L 195 36 L 194 35 L 193 35 L 192 34 L 191 34 L 190 33 L 189 33 L 188 32 L 187 32 L 186 31 L 185 31 L 184 30 L 183 30 L 182 29 L 181 29 L 180 28 L 179 28 L 178 28 L 177 27 L 176 27 L 175 27 L 174 26 L 173 26 L 172 25 L 171 25 L 170 25 L 169 24 L 168 24 L 167 24 L 166 23 L 165 23 L 164 23 L 163 22 L 162 22 L 161 22 L 160 22 L 159 21 L 158 21 L 157 21 L 156 21 L 155 20 L 154 20 L 153 20 L 152 20 L 151 19 L 150 19 L 149 19 L 148 19 L 147 19 L 146 18 L 145 18 L 144 18 L 143 18 L 142 18 L 141 18 L 140 17 L 139 17 L 138 17 L 137 17 L 136 17 L 135 17 L 134 17 L 133 17 L 132 17 L 131 16 L 130 16 L 129 16 L 128 16 L 127 16 L 126 16 L 125 16 L 124 16 L 123 16 L 122 16 L 121 16 L 120 16 L 119 16 L 118 16 L 117 16 L 116 16 L 115 16 L 114 16 L 113 16 L 112 16 L 111 16 L 110 16 L 109 16 L 108 16 L 107 16 L 106 16 Z" fill="black"/>
</svg>